<svg width="200px" height="200px" xmlns="http://www.w3.org/2000/svg" viewBox="0 0 1350.6 1350.59"><defs><style>.a{fill:#fff;}</style></defs><path class="a" d="M675.3,1350.59C302.94,1350.59,0,1047.67,0,675.3S302.94,0,675.3,0s675.3,302.94,675.3,675.3S1047.66,1350.59,675.3,1350.59Zm0-1328.13c-360,0-652.84,292.86-652.84,652.84s292.86,652.84,652.84,652.84,652.84-292.86,652.84-652.84S1035.28,22.46,675.3,22.46Zm0,1249.54c-329,0-596.7-267.68-596.7-596.7S346.28,78.6,675.3,78.6,1272,346.29,1272,675.3,1004.32,1272,675.3,1272Zm0-1170.95c-316.64,0-574.24,257.61-574.24,574.25s257.6,574.24,574.24,574.24,574.25-257.6,574.25-574.24S991.94,101.05,675.3,101.05Z"/><path class="a" d="M515.51,951.34l-.1-552.25,478.32,276ZM537.87,438,538,912.44,948.82,675.12Z"/></svg>